<svg xmlns="http://www.w3.org/2000/svg" viewBox="0 0 64 64">
  <g transform="translate(-2.8, 4.67) scale(0.29)"
     fill="none" stroke="#1A1A1A" stroke-width="10"
     stroke-linecap="round" stroke-linejoin="round">
    <path d="M120 72 C92 48, 58 50, 40 72"/>
    <path d="M120 72 C148 48, 182 50, 200 72"/>
    <path d="M120 74 L120 108"/>
    <path d="M78 84 C68 80, 60 86, 62 96
             C64 108, 82 110, 86 98
             C90 86, 76 78, 70 90"/>
    <path d="M162 84 C172 80, 180 86, 178 96
             C176 108, 158 110, 154 98
             C150 86, 164 78, 170 90"/>
  </g>
</svg>
